<?xml version="1.0" encoding="UTF-8" standalone="no"?>
<!DOCTYPE svg PUBLIC "-//W3C//DTD SVG 1.1//EN"
 "http://www.w3.org/Graphics/SVG/1.1/DTD/svg11.dtd">
<!-- Generated by graphviz version 2.47.0 (20210316.0004)
 -->
<!-- Title: dependencies Pages: 1 -->
<svg width="2540pt" height="284pt"
 viewBox="0.00 0.00 2540.00 284.00" xmlns="http://www.w3.org/2000/svg" xmlns:xlink="http://www.w3.org/1999/xlink">
<g id="graph0" class="graph" transform="scale(1 1) rotate(0) translate(4 280)">
<title>dependencies</title>
<polygon fill="white" stroke="transparent" points="-4,4 -4,-280 2536,-280 2536,4 -4,4"/>
<text text-anchor="start" x="1245.01" y="-42.4" font-family="sans-serif" font-weight="bold" font-size="14.00">Legend</text>
<polygon fill="#ffffb3" stroke="transparent" points="1032,-10 1032,-30 1052,-30 1052,-10 1032,-10"/>
<text text-anchor="start" x="1055.63" y="-15.4" font-family="sans-serif" font-size="14.00"> &#160;Declarations</text>
<polygon fill="#8dd3c7" stroke="transparent" points="1145,-10 1145,-30 1165,-30 1165,-10 1145,-10"/>
<text text-anchor="start" x="1168.73" y="-15.4" font-family="sans-serif" font-size="14.00"> &#160;Module</text>
<polygon fill="#80b1d3" stroke="transparent" points="1231,-10 1231,-30 1251,-30 1251,-10 1231,-10"/>
<text text-anchor="start" x="1254.78" y="-15.4" font-family="sans-serif" font-size="14.00"> &#160;Bootstrap</text>
<polygon fill="#fdb462" stroke="transparent" points="1328,-10 1328,-30 1348,-30 1348,-10 1328,-10"/>
<text text-anchor="start" x="1351.67" y="-15.4" font-family="sans-serif" font-size="14.00"> &#160;Providers</text>
<polygon fill="#fb8072" stroke="transparent" points="1424,-10 1424,-30 1444,-30 1444,-10 1424,-10"/>
<text text-anchor="start" x="1447.73" y="-15.4" font-family="sans-serif" font-size="14.00"> &#160;Exports</text>
<g id="clust1" class="cluster">
<title>cluster_AppModule</title>
<polygon fill="none" stroke="black" stroke-dasharray="1,5" points="8,-70 8,-268 2524,-268 2524,-70 8,-70"/>
</g>
<g id="clust2" class="cluster">
<title>cluster_AppModule_declarations</title>
<polygon fill="none" stroke="black" points="338,-78 338,-130 2516,-130 2516,-78 338,-78"/>
</g>
<g id="clust19" class="cluster">
<title>cluster_AppModule_imports</title>
<polygon fill="none" stroke="black" points="186,-78 186,-130 330,-130 330,-78 186,-78"/>
</g>
<g id="clust21" class="cluster">
<title>cluster_AppModule_bootstrap</title>
<polygon fill="none" stroke="black" points="1164,-208 1164,-260 1288,-260 1288,-208 1164,-208"/>
</g>
<g id="clust22" class="cluster">
<title>cluster_AppModule_providers</title>
<polygon fill="none" stroke="black" points="16,-78 16,-130 178,-130 178,-78 16,-78"/>
</g>
<!-- AnimeComponent -->
<g id="node1" class="node">
<title>AnimeComponent</title>
<polygon fill="#ffffb3" stroke="black" points="2507.94,-122 2388.06,-122 2388.06,-86 2507.94,-86 2507.94,-122"/>
<text text-anchor="middle" x="2448" y="-99.8" font-family="Times,serif" font-size="14.00">AnimeComponent</text>
</g>
<!-- AppModule -->
<g id="node17" class="node">
<title>AppModule</title>
<polygon fill="#8dd3c7" stroke="black" points="1267.66,-187 1264.66,-191 1243.66,-191 1240.66,-187 1184.34,-187 1184.34,-151 1267.66,-151 1267.66,-187"/>
<text text-anchor="middle" x="1226" y="-164.8" font-family="Times,serif" font-size="14.00">AppModule</text>
</g>
<!-- AnimeComponent&#45;&gt;AppModule -->
<g id="edge1" class="edge">
<title>AnimeComponent&#45;&gt;AppModule</title>
<path fill="none" stroke="black" d="M2448,-122.32C2448,-145.66 2448,-183 2448,-183 2448,-183 1277.71,-183 1277.71,-183"/>
<polygon fill="black" stroke="black" points="1277.71,-179.5 1267.71,-183 1277.71,-186.5 1277.71,-179.5"/>
</g>
<!-- AnimemodalComponent -->
<g id="node2" class="node">
<title>AnimemodalComponent</title>
<polygon fill="#ffffb3" stroke="black" points="2370.43,-122 2215.57,-122 2215.57,-86 2370.43,-86 2370.43,-122"/>
<text text-anchor="middle" x="2293" y="-99.8" font-family="Times,serif" font-size="14.00">AnimemodalComponent</text>
</g>
<!-- AnimemodalComponent&#45;&gt;AppModule -->
<g id="edge2" class="edge">
<title>AnimemodalComponent&#45;&gt;AppModule</title>
<path fill="none" stroke="black" d="M2293,-122.16C2293,-144.35 2293,-179 2293,-179 2293,-179 1277.83,-179 1277.83,-179"/>
<polygon fill="black" stroke="black" points="1277.83,-175.5 1267.83,-179 1277.83,-182.5 1277.83,-175.5"/>
</g>
<!-- AppComponent -->
<g id="node3" class="node">
<title>AppComponent</title>
<polygon fill="#ffffb3" stroke="black" points="2197.94,-122 2092.06,-122 2092.06,-86 2197.94,-86 2197.94,-122"/>
<text text-anchor="middle" x="2145" y="-99.8" font-family="Times,serif" font-size="14.00">AppComponent</text>
</g>
<!-- AppComponent&#45;&gt;AppModule -->
<g id="edge3" class="edge">
<title>AppComponent&#45;&gt;AppModule</title>
<path fill="none" stroke="black" d="M2145,-122.28C2145,-143.32 2145,-175 2145,-175 2145,-175 1277.88,-175 1277.88,-175"/>
<polygon fill="black" stroke="black" points="1277.88,-171.5 1267.88,-175 1277.88,-178.5 1277.88,-171.5"/>
</g>
<!-- ForumComponent -->
<g id="node4" class="node">
<title>ForumComponent</title>
<polygon fill="#ffffb3" stroke="black" points="2074.17,-122 1955.83,-122 1955.83,-86 2074.17,-86 2074.17,-122"/>
<text text-anchor="middle" x="2015" y="-99.8" font-family="Times,serif" font-size="14.00">ForumComponent</text>
</g>
<!-- ForumComponent&#45;&gt;AppModule -->
<g id="edge4" class="edge">
<title>ForumComponent&#45;&gt;AppModule</title>
<path fill="none" stroke="black" d="M2015,-122.31C2015,-142.15 2015,-171 2015,-171 2015,-171 1277.86,-171 1277.86,-171"/>
<polygon fill="black" stroke="black" points="1277.86,-167.5 1267.86,-171 1277.86,-174.5 1277.86,-167.5"/>
</g>
<!-- HomeComponent -->
<g id="node5" class="node">
<title>HomeComponent</title>
<polygon fill="#ffffb3" stroke="black" points="1937.55,-122 1822.45,-122 1822.45,-86 1937.55,-86 1937.55,-122"/>
<text text-anchor="middle" x="1880" y="-99.8" font-family="Times,serif" font-size="14.00">HomeComponent</text>
</g>
<!-- HomeComponent&#45;&gt;AppModule -->
<g id="edge5" class="edge">
<title>HomeComponent&#45;&gt;AppModule</title>
<path fill="none" stroke="black" d="M1880,-122.22C1880,-140.83 1880,-167 1880,-167 1880,-167 1277.91,-167 1277.91,-167"/>
<polygon fill="black" stroke="black" points="1277.91,-163.5 1267.91,-167 1277.91,-170.5 1277.91,-163.5"/>
</g>
<!-- MangaComponent -->
<g id="node6" class="node">
<title>MangaComponent</title>
<polygon fill="#ffffb3" stroke="black" points="1804.21,-122 1683.79,-122 1683.79,-86 1804.21,-86 1804.21,-122"/>
<text text-anchor="middle" x="1744" y="-99.8" font-family="Times,serif" font-size="14.00">MangaComponent</text>
</g>
<!-- MangaComponent&#45;&gt;AppModule -->
<g id="edge6" class="edge">
<title>MangaComponent&#45;&gt;AppModule</title>
<path fill="none" stroke="black" d="M1744,-122.02C1744,-139.37 1744,-163 1744,-163 1744,-163 1277.95,-163 1277.95,-163"/>
<polygon fill="black" stroke="black" points="1277.95,-159.5 1267.95,-163 1277.95,-166.5 1277.95,-159.5"/>
</g>
<!-- MangamodalComponent -->
<g id="node7" class="node">
<title>MangamodalComponent</title>
<polygon fill="#ffffb3" stroke="black" points="1665.7,-122 1510.3,-122 1510.3,-86 1665.7,-86 1665.7,-122"/>
<text text-anchor="middle" x="1588" y="-99.8" font-family="Times,serif" font-size="14.00">MangamodalComponent</text>
</g>
<!-- MangamodalComponent&#45;&gt;AppModule -->
<g id="edge7" class="edge">
<title>MangamodalComponent&#45;&gt;AppModule</title>
<path fill="none" stroke="black" d="M1588,-122.01C1588,-138.05 1588,-159 1588,-159 1588,-159 1277.88,-159 1277.88,-159"/>
<polygon fill="black" stroke="black" points="1277.88,-155.5 1267.88,-159 1277.88,-162.5 1277.88,-155.5"/>
</g>
<!-- NavComponent -->
<g id="node8" class="node">
<title>NavComponent</title>
<polygon fill="#ffffb3" stroke="black" points="1492.15,-122 1387.85,-122 1387.85,-86 1492.15,-86 1492.15,-122"/>
<text text-anchor="middle" x="1440" y="-99.8" font-family="Times,serif" font-size="14.00">NavComponent</text>
</g>
<!-- NavComponent&#45;&gt;AppModule -->
<g id="edge8" class="edge">
<title>NavComponent&#45;&gt;AppModule</title>
<path fill="none" stroke="black" d="M1440,-122.12C1440,-136.78 1440,-155 1440,-155 1440,-155 1277.77,-155 1277.77,-155"/>
<polygon fill="black" stroke="black" points="1277.77,-151.5 1267.77,-155 1277.77,-158.5 1277.77,-151.5"/>
</g>
<!-- NavfooterComponent -->
<g id="node9" class="node">
<title>NavfooterComponent</title>
<polygon fill="#ffffb3" stroke="black" points="1370.08,-122 1231.92,-122 1231.92,-86 1370.08,-86 1370.08,-122"/>
<text text-anchor="middle" x="1301" y="-99.8" font-family="Times,serif" font-size="14.00">NavfooterComponent</text>
</g>
<!-- NavfooterComponent&#45;&gt;AppModule -->
<g id="edge9" class="edge">
<title>NavfooterComponent&#45;&gt;AppModule</title>
<path fill="none" stroke="black" d="M1249.89,-122.11C1249.89,-122.11 1249.89,-140.99 1249.89,-140.99"/>
<polygon fill="black" stroke="black" points="1246.39,-140.99 1249.89,-150.99 1253.39,-140.99 1246.39,-140.99"/>
</g>
<!-- NoDescriptionPipe -->
<g id="node10" class="node">
<title>NoDescriptionPipe</title>
<polygon fill="#ffffb3" stroke="black" points="1213.81,-122 1090.19,-122 1090.19,-86 1213.81,-86 1213.81,-122"/>
<text text-anchor="middle" x="1152" y="-99.8" font-family="Times,serif" font-size="14.00">NoDescriptionPipe</text>
</g>
<!-- NoDescriptionPipe&#45;&gt;AppModule -->
<g id="edge10" class="edge">
<title>NoDescriptionPipe&#45;&gt;AppModule</title>
<path fill="none" stroke="black" d="M1198.91,-122.11C1198.91,-122.11 1198.91,-140.99 1198.91,-140.99"/>
<polygon fill="black" stroke="black" points="1195.41,-140.99 1198.91,-150.99 1202.41,-140.99 1195.41,-140.99"/>
</g>
<!-- NoImagePipe -->
<g id="node11" class="node">
<title>NoImagePipe</title>
<polygon fill="#ffffb3" stroke="black" points="1072.47,-122 979.53,-122 979.53,-86 1072.47,-86 1072.47,-122"/>
<text text-anchor="middle" x="1026" y="-99.8" font-family="Times,serif" font-size="14.00">NoImagePipe</text>
</g>
<!-- NoImagePipe&#45;&gt;AppModule -->
<g id="edge11" class="edge">
<title>NoImagePipe&#45;&gt;AppModule</title>
<path fill="none" stroke="black" d="M1026,-122.12C1026,-136.78 1026,-155 1026,-155 1026,-155 1174.07,-155 1174.07,-155"/>
<polygon fill="black" stroke="black" points="1174.07,-158.5 1184.07,-155 1174.07,-151.5 1174.07,-158.5"/>
</g>
<!-- NoSeasonPipe -->
<g id="node12" class="node">
<title>NoSeasonPipe</title>
<polygon fill="#ffffb3" stroke="black" points="961.65,-122 864.35,-122 864.35,-86 961.65,-86 961.65,-122"/>
<text text-anchor="middle" x="913" y="-99.8" font-family="Times,serif" font-size="14.00">NoSeasonPipe</text>
</g>
<!-- NoSeasonPipe&#45;&gt;AppModule -->
<g id="edge12" class="edge">
<title>NoSeasonPipe&#45;&gt;AppModule</title>
<path fill="none" stroke="black" d="M913,-122.01C913,-138.05 913,-159 913,-159 913,-159 1174.11,-159 1174.11,-159"/>
<polygon fill="black" stroke="black" points="1174.11,-162.5 1184.11,-159 1174.11,-155.5 1174.11,-162.5"/>
</g>
<!-- NoYearPipe -->
<g id="node13" class="node">
<title>NoYearPipe</title>
<polygon fill="#ffffb3" stroke="black" points="846.69,-122 761.31,-122 761.31,-86 846.69,-86 846.69,-122"/>
<text text-anchor="middle" x="804" y="-99.8" font-family="Times,serif" font-size="14.00">NoYearPipe</text>
</g>
<!-- NoYearPipe&#45;&gt;AppModule -->
<g id="edge13" class="edge">
<title>NoYearPipe&#45;&gt;AppModule</title>
<path fill="none" stroke="black" d="M804,-122.02C804,-139.37 804,-163 804,-163 804,-163 1173.99,-163 1173.99,-163"/>
<polygon fill="black" stroke="black" points="1173.99,-166.5 1183.99,-163 1173.99,-159.5 1173.99,-166.5"/>
</g>
<!-- ProfileComponent -->
<g id="node14" class="node">
<title>ProfileComponent</title>
<polygon fill="#ffffb3" stroke="black" points="743.93,-122 624.07,-122 624.07,-86 743.93,-86 743.93,-122"/>
<text text-anchor="middle" x="684" y="-99.8" font-family="Times,serif" font-size="14.00">ProfileComponent</text>
</g>
<!-- ProfileComponent&#45;&gt;AppModule -->
<g id="edge14" class="edge">
<title>ProfileComponent&#45;&gt;AppModule</title>
<path fill="none" stroke="black" d="M684,-122.22C684,-140.83 684,-167 684,-167 684,-167 1173.92,-167 1173.92,-167"/>
<polygon fill="black" stroke="black" points="1173.92,-170.5 1183.92,-167 1173.92,-163.5 1173.92,-170.5"/>
</g>
<!-- SignInComponent -->
<g id="node15" class="node">
<title>SignInComponent</title>
<polygon fill="#ffffb3" stroke="black" points="606.17,-122 487.83,-122 487.83,-86 606.17,-86 606.17,-122"/>
<text text-anchor="middle" x="547" y="-99.8" font-family="Times,serif" font-size="14.00">SignInComponent</text>
</g>
<!-- SignInComponent&#45;&gt;AppModule -->
<g id="edge15" class="edge">
<title>SignInComponent&#45;&gt;AppModule</title>
<path fill="none" stroke="black" d="M547,-122.31C547,-142.15 547,-171 547,-171 547,-171 1174.29,-171 1174.29,-171"/>
<polygon fill="black" stroke="black" points="1174.29,-174.5 1184.29,-171 1174.29,-167.5 1174.29,-174.5"/>
</g>
<!-- SignUpComponent -->
<g id="node16" class="node">
<title>SignUpComponent</title>
<polygon fill="#ffffb3" stroke="black" points="470.11,-122 345.89,-122 345.89,-86 470.11,-86 470.11,-122"/>
<text text-anchor="middle" x="408" y="-99.8" font-family="Times,serif" font-size="14.00">SignUpComponent</text>
</g>
<!-- SignUpComponent&#45;&gt;AppModule -->
<g id="edge16" class="edge">
<title>SignUpComponent&#45;&gt;AppModule</title>
<path fill="none" stroke="black" d="M408,-122.28C408,-143.32 408,-175 408,-175 408,-175 1174.31,-175 1174.31,-175"/>
<polygon fill="black" stroke="black" points="1174.31,-178.5 1184.31,-175 1174.31,-171.5 1174.31,-178.5"/>
</g>
<!-- AppComponent  -->
<g id="node19" class="node">
<title>AppComponent </title>
<polygon fill="#80b1d3" stroke="black" points="1280.44,-252 1171.56,-252 1171.56,-216 1280.44,-216 1280.44,-252"/>
<text text-anchor="middle" x="1226" y="-229.8" font-family="Times,serif" font-size="14.00">AppComponent </text>
</g>
<!-- AppModule&#45;&gt;AppComponent  -->
<g id="edge18" class="edge">
<title>AppModule&#45;&gt;AppComponent </title>
<path fill="none" stroke="black" stroke-dasharray="1,5" d="M1226,-187.11C1226,-187.11 1226,-205.99 1226,-205.99"/>
<polygon fill="black" stroke="black" points="1222.5,-205.99 1226,-215.99 1229.5,-205.99 1222.5,-205.99"/>
</g>
<!-- AppRoutingModule -->
<g id="node18" class="node">
<title>AppRoutingModule</title>
<polygon fill="#8dd3c7" stroke="black" points="322.27,-122 319.27,-126 298.27,-126 295.27,-122 193.73,-122 193.73,-86 322.27,-86 322.27,-122"/>
<text text-anchor="middle" x="258" y="-99.8" font-family="Times,serif" font-size="14.00">AppRoutingModule</text>
</g>
<!-- AppRoutingModule&#45;&gt;AppModule -->
<g id="edge17" class="edge">
<title>AppRoutingModule&#45;&gt;AppModule</title>
<path fill="none" stroke="black" d="M258,-122.16C258,-144.35 258,-179 258,-179 258,-179 1174.1,-179 1174.1,-179"/>
<polygon fill="black" stroke="black" points="1174.1,-182.5 1184.1,-179 1174.1,-175.5 1174.1,-182.5"/>
</g>
<!-- AuthInterceptor -->
<g id="node20" class="node">
<title>AuthInterceptor</title>
<ellipse fill="#fdb462" stroke="black" cx="97" cy="-104" rx="72.91" ry="18"/>
<text text-anchor="middle" x="97" y="-99.8" font-family="Times,serif" font-size="14.00">AuthInterceptor</text>
</g>
<!-- AuthInterceptor&#45;&gt;AppModule -->
<g id="edge19" class="edge">
<title>AuthInterceptor&#45;&gt;AppModule</title>
<path fill="none" stroke="black" d="M97,-122.32C97,-145.66 97,-183 97,-183 97,-183 1174.14,-183 1174.14,-183"/>
<polygon fill="black" stroke="black" points="1174.14,-186.5 1184.14,-183 1174.14,-179.5 1174.14,-186.5"/>
</g>
</g>
</svg>
